<svg width="229" height="169" viewBox="0 0 229 169" fill="none" xmlns="http://www.w3.org/2000/svg">
<circle cx="37.583" cy="37.583" r="36.083" stroke="#3D3268" stroke-width="3"/>
<path d="M37.583 93.0063C57.5528 93.0064 73.6658 108.715 73.666 128C73.666 147.285 57.553 162.994 37.583 162.994C17.613 162.994 1.5 147.285 1.5 128C1.50025 108.715 17.6132 93.0063 37.583 93.0063Z" stroke="#3D3268" stroke-width="3"/>
<path d="M128 1.5C147.285 1.5 162.994 17.613 162.994 37.583C162.994 57.553 147.285 73.666 128 73.666C108.715 73.6658 93.0069 57.5528 93.0068 37.583C93.0068 17.6132 108.715 1.50025 128 1.5Z" stroke="#3D3268" stroke-width="3"/>
<circle cx="128" cy="128" r="34.9936" stroke="#3D3268" stroke-width="3"/>
<circle cx="218.417" cy="37.583" r="36.083" stroke="#3D3268" stroke-width="3"/>
<path d="M218.417 93.0063C238.387 93.0064 254.5 108.715 254.5 128C254.5 147.285 238.387 162.994 218.417 162.994C198.447 162.994 182.334 147.285 182.334 128C182.334 108.715 198.447 93.0063 218.417 93.0063Z" stroke="#3D3268" stroke-width="3"/>
<rect x="34.8594" y="71.8979" width="4.35745" height="22.8766" fill="#3D3268"/>
<rect x="150.332" y="63.6924" width="3.80209" height="59.2394" transform="rotate(-45 150.332 63.6924)" fill="#3D3268"/>
<rect x="58.8252" y="155.199" width="3.80209" height="58.7463" transform="rotate(-45 58.8252 155.199)" fill="#3D3268"/>
</svg>
