<svg width="261" height="51" viewBox="0 0 261 51" fill="none" xmlns="http://www.w3.org/2000/svg">
<circle cx="7.5" cy="7.5" r="6" stroke="white" stroke-width="3"/>
<circle cx="7.5" cy="25.5" r="6" stroke="white" stroke-width="3"/>
<circle cx="7.5" cy="43.5" r="6" stroke="white" stroke-width="3"/>
<circle cx="25.5" cy="7.5" r="6" stroke="white" stroke-width="3"/>
<circle cx="25.5" cy="25.5" r="6" stroke="white" stroke-width="3"/>
<circle cx="25.5" cy="43.5" r="6" stroke="white" stroke-width="3"/>
<circle cx="43.5" cy="7.5" r="6" stroke="white" stroke-width="3"/>
<circle cx="43.5" cy="25.5" r="6" stroke="white" stroke-width="3"/>
<circle cx="43.5" cy="43.5" r="6" stroke="white" stroke-width="3"/>
<rect x="30.5" y="45.5" width="3" height="8" transform="rotate(-90 30.5 45.5)" fill="white" stroke="white"/>
<rect x="5.5" y="12.5" width="3" height="8" fill="white" stroke="white"/>
<rect x="28.2929" y="12.4141" width="3" height="14.2199" transform="rotate(-45 28.2929 12.4141)" fill="white" stroke="white"/>
<rect x="9.29289" y="30.4141" width="3" height="14.2199" transform="rotate(-45 9.29289 30.4141)" fill="white" stroke="white"/>
<path d="M80.7727 12.9091V42H72.875V12.9091H80.7727ZM109.686 12.9091V42H103.095L92.5838 26.7159H92.4134V42H84.5156V12.9091H91.2202L101.561 28.1364H101.788V12.9091H109.686ZM138.592 12.9091V42H132.001L121.49 26.7159H121.32V42H113.422V12.9091H120.126L130.467 28.1364H130.695V12.9091H138.592ZM170.51 27.4545C170.51 30.6932 169.88 33.4252 168.621 35.6506C167.361 37.8665 165.661 39.5473 163.521 40.6932C161.381 41.8295 158.995 42.3977 156.362 42.3977C153.711 42.3977 151.315 41.8248 149.175 40.679C147.044 39.5237 145.349 37.8381 144.089 35.6222C142.839 33.3968 142.214 30.6742 142.214 27.4545C142.214 24.2159 142.839 21.4886 144.089 19.2727C145.349 17.0473 147.044 15.3665 149.175 14.2301C151.315 13.0843 153.711 12.5114 156.362 12.5114C158.995 12.5114 161.381 13.0843 163.521 14.2301C165.661 15.3665 167.361 17.0473 168.621 19.2727C169.88 21.4886 170.51 24.2159 170.51 27.4545ZM162.385 27.4545C162.385 25.7121 162.153 24.2443 161.689 23.0511C161.234 21.8485 160.557 20.9394 159.658 20.3239C158.768 19.6989 157.669 19.3864 156.362 19.3864C155.055 19.3864 153.952 19.6989 153.053 20.3239C152.162 20.9394 151.485 21.8485 151.021 23.0511C150.567 24.2443 150.339 25.7121 150.339 27.4545C150.339 29.197 150.567 30.6695 151.021 31.8722C151.485 33.0653 152.162 33.9744 153.053 34.5994C153.952 35.215 155.055 35.5227 156.362 35.5227C157.669 35.5227 158.768 35.215 159.658 34.5994C160.557 33.9744 161.234 33.0653 161.689 31.8722C162.153 30.6695 162.385 29.197 162.385 27.4545ZM201.323 23.8182H193.312C193.255 23.1553 193.103 22.554 192.857 22.0142C192.621 21.4744 192.289 21.0104 191.863 20.6222C191.446 20.2244 190.94 19.9214 190.343 19.7131C189.746 19.4953 189.069 19.3864 188.312 19.3864C186.986 19.3864 185.864 19.7083 184.945 20.3523C184.036 20.9962 183.345 21.9195 182.871 23.1222C182.407 24.3248 182.175 25.7689 182.175 27.4545C182.175 29.2348 182.412 30.7263 182.886 31.929C183.369 33.1222 184.065 34.0218 184.974 34.6278C185.883 35.2244 186.977 35.5227 188.255 35.5227C188.984 35.5227 189.638 35.4328 190.215 35.2528C190.793 35.0634 191.295 34.7936 191.721 34.4432C192.147 34.0928 192.493 33.6714 192.758 33.179C193.032 32.6771 193.217 32.1136 193.312 31.4886L201.323 31.5455C201.228 32.7765 200.883 34.0312 200.286 35.3097C199.69 36.5786 198.842 37.7528 197.744 38.8324C196.655 39.9025 195.305 40.7642 193.695 41.4176C192.085 42.071 190.215 42.3977 188.085 42.3977C185.414 42.3977 183.018 41.8248 180.897 40.679C178.785 39.5331 177.114 37.8475 175.883 35.6222C174.661 33.3968 174.05 30.6742 174.05 27.4545C174.05 24.2159 174.675 21.4886 175.925 19.2727C177.175 17.0473 178.861 15.3665 180.982 14.2301C183.103 13.0843 185.471 12.5114 188.085 12.5114C189.922 12.5114 191.612 12.7623 193.156 13.2642C194.699 13.7661 196.053 14.5 197.218 15.4659C198.383 16.4223 199.32 17.6013 200.031 19.0028C200.741 20.4044 201.172 22.0095 201.323 23.8182ZM211.565 42H203.042L212.644 12.9091H223.44L233.042 42H224.519L218.156 20.9205H217.928L211.565 42ZM209.974 30.5227H225.996V36.4318H209.974V30.5227ZM235.844 42V12.9091H248.401C250.56 12.9091 252.449 13.3021 254.068 14.0881C255.688 14.8741 256.947 16.0057 257.847 17.483C258.746 18.9602 259.196 20.7311 259.196 22.7955C259.196 24.8788 258.732 26.6354 257.804 28.0653C256.885 29.4953 255.593 30.5748 253.926 31.304C252.269 32.0331 250.332 32.3977 248.116 32.3977H240.616V26.2614H246.526C247.454 26.2614 248.244 26.1477 248.898 25.9205C249.561 25.6837 250.067 25.3097 250.418 24.7983C250.777 24.2869 250.957 23.6193 250.957 22.7955C250.957 21.9621 250.777 21.285 250.418 20.7642C250.067 20.2339 249.561 19.8456 248.898 19.5994C248.244 19.3437 247.454 19.2159 246.526 19.2159H243.741V42H235.844ZM252.889 28.6477L260.162 42H251.582L244.48 28.6477H252.889Z" fill="white"/>
</svg>
