<svg width="19" height="19" viewBox="0 0 19 19" fill="none" xmlns="http://www.w3.org/2000/svg">
<path d="M7.68388 1.93733C8.39871 0.387588 10.6013 0.387587 11.3161 1.93733L12.5578 4.62932C12.8491 5.26093 13.4477 5.69581 14.1384 5.77771L17.0824 6.12676C18.7772 6.32771 19.4578 8.42248 18.2048 9.58122L16.0283 11.594C15.5176 12.0663 15.289 12.7699 15.4245 13.4522L16.0023 16.3599C16.3349 18.0338 14.553 19.3284 13.0637 18.4948L10.4769 17.0468C9.86994 16.7071 9.13006 16.7071 8.52312 17.0468L5.93626 18.4948C4.44703 19.3284 2.66511 18.0338 2.99772 16.3599L3.57548 13.4522C3.71104 12.7699 3.4824 12.0663 2.97173 11.594L0.795207 9.58122C-0.457793 8.42248 0.22284 6.32771 1.91763 6.12676L4.86156 5.77771C5.55229 5.69581 6.15086 5.26093 6.44219 4.62932L7.68388 1.93733Z" fill="#FFD54F"/>
</svg>
